<svg width="80" height="80" viewBox="0 0 80 80" fill="none" xmlns="http://www.w3.org/2000/svg">
<circle cx="40" cy="40" r="40" fill="#F2F2F2"/>
<g opacity="0.8">
<path d="M35.3396 28.0478C33.6008 28.6306 30.9968 29.5062 27.5234 30.6747L27.3624 30.7405C26.8416 30.9945 26.5 31.5489 26.5 32.169V38.2895L26.5098 38.4733C26.5461 38.8093 26.6828 39.1131 26.8868 39.3499C27.1556 39.6626 27.5415 39.8585 27.9699 39.8585L28.1225 39.8495C28.2219 39.8391 28.3213 39.8166 28.4179 39.7838L32.3797 38.433L32.38 51.4195C32.38 51.7277 32.4632 52.0152 32.6076 52.2579C32.8676 52.6977 33.3264 52.99 33.8496 52.99H47.0748L47.2512 52.978C47.5077 52.9455 47.7437 52.8425 47.9417 52.6878C48.0479 52.6049 48.1433 52.507 48.2252 52.3972L48.3177 52.2575C48.3465 52.2087 48.3728 52.1582 48.3976 52.1049C48.4924 51.896 48.5453 51.6614 48.5444 51.4136L48.4968 38.4374L52.5163 39.7927C52.6605 39.8405 52.8089 39.8659 52.9614 39.8659C53.772 39.8659 54.43 39.1636 54.43 38.2969V32.1735C54.43 31.4906 54.0142 30.8839 53.4024 30.6777L47.0436 28.5603L46.779 28.4707C46.233 28.2869 45.8228 28.1479 45.5526 28.0538C45.5386 28.0508 45.5232 28.0463 45.5078 28.0389C45.2824 27.9641 45.0388 28.0643 44.9184 28.2824C44.0294 29.9201 42.3676 31.0229 40.465 31.0229C38.5596 31.0229 36.8978 29.9186 36.0074 28.2779M35.3396 28.0478L35.1119 28.1241C35.1892 28.0982 35.2654 28.0727 35.3396 28.0478ZM35.3396 28.0478C35.3592 28.0403 35.3784 28.0329 35.4022 28.0255L35.4796 28.0065L35.4925 28.0045C35.5094 28.0023 35.5164 28.0017 35.5234 28.0012L35.558 28C35.5646 28 35.5711 28.0001 35.5777 28.0004C35.5949 28.0011 35.6126 28.0028 35.6301 28.0055C35.651 28.0085 35.6716 28.0129 35.6918 28.0186C35.7012 28.0217 35.7104 28.0246 35.7195 28.0278C35.74 28.0345 35.7605 28.0432 35.7804 28.0532C35.7911 28.0593 35.8012 28.0649 35.8111 28.0709C35.8325 28.0828 35.8529 28.097 35.8724 28.1128C35.8758 28.1167 35.8799 28.1202 35.884 28.1237C35.9333 28.1653 35.9751 28.2172 36.0074 28.2779M36.0074 28.2779L35.9445 28.1856C35.954 28.197 35.9632 28.2089 35.9718 28.2212L36.0074 28.2779Z" stroke="black" stroke-width="3" stroke-linejoin="round"/>
</g>
</svg>
